<mxfile host="Electron" agent="Mozilla/5.0 (Windows NT 10.0; Win64; x64) AppleWebKit/537.36 (KHTML, like Gecko) draw.io/28.1.2 Chrome/138.0.7204.243 Electron/37.4.0 Safari/537.36" version="28.1.2">
  <diagram name="Page-1" id="no-8r87YCrEmk9oTUVOf">
    <mxGraphModel dx="786" dy="562" grid="1" gridSize="10" guides="1" tooltips="1" connect="1" arrows="1" fold="1" page="1" pageScale="1" pageWidth="850" pageHeight="1100" math="0" shadow="0">
      <root>
        <mxCell id="0" />
        <mxCell id="1" parent="0" />
        <mxCell id="LeXcBwFbi9P3hjQakPJu-8" style="edgeStyle=orthogonalEdgeStyle;rounded=0;orthogonalLoop=1;jettySize=auto;html=1;flowAnimation=1;" edge="1" parent="1" source="LeXcBwFbi9P3hjQakPJu-2" target="LeXcBwFbi9P3hjQakPJu-3">
          <mxGeometry relative="1" as="geometry" />
        </mxCell>
        <mxCell id="LeXcBwFbi9P3hjQakPJu-2" value="User" style="html=1;whiteSpace=wrap;strokeColor=none;fillColor=#0079D6;labelPosition=center;verticalLabelPosition=middle;verticalAlign=top;align=center;fontSize=12;outlineConnect=0;spacingTop=-6;fontColor=#FFFFFF;sketch=0;shape=mxgraph.sitemap.user;" vertex="1" parent="1">
          <mxGeometry x="100" y="162.5" width="90" height="60" as="geometry" />
        </mxCell>
        <mxCell id="LeXcBwFbi9P3hjQakPJu-9" style="edgeStyle=orthogonalEdgeStyle;rounded=0;orthogonalLoop=1;jettySize=auto;html=1;exitX=1;exitY=0.5;exitDx=0;exitDy=0;exitPerimeter=0;flowAnimation=1;" edge="1" parent="1" source="LeXcBwFbi9P3hjQakPJu-3" target="LeXcBwFbi9P3hjQakPJu-4">
          <mxGeometry relative="1" as="geometry">
            <Array as="points">
              <mxPoint x="338" y="180" />
            </Array>
          </mxGeometry>
        </mxCell>
        <mxCell id="LeXcBwFbi9P3hjQakPJu-3" value="" style="sketch=0;points=[[0,0,0],[0.25,0,0],[0.5,0,0],[0.75,0,0],[1,0,0],[0,1,0],[0.25,1,0],[0.5,1,0],[0.75,1,0],[1,1,0],[0,0.25,0],[0,0.5,0],[0,0.75,0],[1,0.25,0],[1,0.5,0],[1,0.75,0]];outlineConnect=0;fontColor=#232F3E;fillColor=#01A88D;strokeColor=#ffffff;dashed=0;verticalLabelPosition=bottom;verticalAlign=top;align=center;html=1;fontSize=12;fontStyle=0;aspect=fixed;shape=mxgraph.aws4.resourceIcon;resIcon=mxgraph.aws4.desktop_and_app_streaming;" vertex="1" parent="1">
          <mxGeometry x="260" y="153.5" width="78" height="78" as="geometry" />
        </mxCell>
        <mxCell id="LeXcBwFbi9P3hjQakPJu-10" value="" style="edgeStyle=orthogonalEdgeStyle;rounded=0;orthogonalLoop=1;jettySize=auto;html=1;flowAnimation=1;" edge="1" parent="1" source="LeXcBwFbi9P3hjQakPJu-4" target="LeXcBwFbi9P3hjQakPJu-5">
          <mxGeometry relative="1" as="geometry">
            <Array as="points">
              <mxPoint x="430" y="270" />
              <mxPoint x="430" y="270" />
            </Array>
          </mxGeometry>
        </mxCell>
        <mxCell id="LeXcBwFbi9P3hjQakPJu-11" style="edgeStyle=orthogonalEdgeStyle;rounded=0;orthogonalLoop=1;jettySize=auto;html=1;flowAnimation=1;" edge="1" parent="1" source="LeXcBwFbi9P3hjQakPJu-4" target="LeXcBwFbi9P3hjQakPJu-6">
          <mxGeometry relative="1" as="geometry">
            <Array as="points">
              <mxPoint x="530" y="200" />
              <mxPoint x="530" y="200" />
            </Array>
          </mxGeometry>
        </mxCell>
        <mxCell id="LeXcBwFbi9P3hjQakPJu-20" value="" style="edgeStyle=orthogonalEdgeStyle;rounded=0;orthogonalLoop=1;jettySize=auto;html=1;flowAnimation=1;" edge="1" parent="1" source="LeXcBwFbi9P3hjQakPJu-4" target="LeXcBwFbi9P3hjQakPJu-3">
          <mxGeometry relative="1" as="geometry" />
        </mxCell>
        <mxCell id="LeXcBwFbi9P3hjQakPJu-4" value="" style="outlineConnect=0;dashed=0;verticalLabelPosition=bottom;verticalAlign=top;align=center;html=1;shape=mxgraph.aws3.ec2;fillColor=#F58534;gradientColor=none;" vertex="1" parent="1">
          <mxGeometry x="400" y="146" width="80" height="93" as="geometry" />
        </mxCell>
        <mxCell id="LeXcBwFbi9P3hjQakPJu-21" value="" style="edgeStyle=orthogonalEdgeStyle;rounded=0;orthogonalLoop=1;jettySize=auto;html=1;flowAnimation=1;" edge="1" parent="1" source="LeXcBwFbi9P3hjQakPJu-5" target="LeXcBwFbi9P3hjQakPJu-4">
          <mxGeometry relative="1" as="geometry">
            <Array as="points">
              <mxPoint x="450" y="260" />
              <mxPoint x="450" y="260" />
            </Array>
          </mxGeometry>
        </mxCell>
        <mxCell id="LeXcBwFbi9P3hjQakPJu-5" value="" style="outlineConnect=0;dashed=0;verticalLabelPosition=bottom;verticalAlign=top;align=center;html=1;shape=mxgraph.aws3.rds;fillColor=#2E73B8;gradientColor=none;" vertex="1" parent="1">
          <mxGeometry x="404" y="290" width="72" height="81" as="geometry" />
        </mxCell>
        <mxCell id="LeXcBwFbi9P3hjQakPJu-19" style="edgeStyle=orthogonalEdgeStyle;rounded=0;orthogonalLoop=1;jettySize=auto;html=1;flowAnimation=1;" edge="1" parent="1" source="LeXcBwFbi9P3hjQakPJu-6" target="LeXcBwFbi9P3hjQakPJu-7">
          <mxGeometry relative="1" as="geometry">
            <mxPoint x="600" y="290" as="targetPoint" />
            <Array as="points" />
          </mxGeometry>
        </mxCell>
        <mxCell id="LeXcBwFbi9P3hjQakPJu-6" value="" style="outlineConnect=0;dashed=0;verticalLabelPosition=bottom;verticalAlign=top;align=center;html=1;shape=mxgraph.aws3.s3;fillColor=#E05243;gradientColor=none;" vertex="1" parent="1">
          <mxGeometry x="550" y="162.5" width="76.5" height="93" as="geometry" />
        </mxCell>
        <mxCell id="LeXcBwFbi9P3hjQakPJu-7" value="" style="sketch=0;points=[[0,0,0],[0.25,0,0],[0.5,0,0],[0.75,0,0],[1,0,0],[0,1,0],[0.25,1,0],[0.5,1,0],[0.75,1,0],[1,1,0],[0,0.25,0],[0,0.5,0],[0,0.75,0],[1,0.25,0],[1,0.5,0],[1,0.75,0]];outlineConnect=0;fontColor=#232F3E;fillColor=#7AA116;strokeColor=#ffffff;dashed=0;verticalLabelPosition=bottom;verticalAlign=top;align=center;html=1;fontSize=12;fontStyle=0;aspect=fixed;shape=mxgraph.aws4.resourceIcon;resIcon=mxgraph.aws4.glacier;" vertex="1" parent="1">
          <mxGeometry x="550" y="322" width="78" height="78" as="geometry" />
        </mxCell>
        <mxCell id="LeXcBwFbi9P3hjQakPJu-13" value="Passageiro realiza o&amp;nbsp;&lt;div&gt;check-in online&amp;nbsp;&lt;/div&gt;" style="text;html=1;align=center;verticalAlign=middle;resizable=0;points=[];autosize=1;strokeColor=none;fillColor=none;" vertex="1" parent="1">
          <mxGeometry x="150" y="111" width="140" height="40" as="geometry" />
        </mxCell>
        <mxCell id="LeXcBwFbi9P3hjQakPJu-14" value="Site/App da companhia&lt;div&gt;&amp;nbsp;aérea&lt;/div&gt;" style="text;html=1;align=center;verticalAlign=middle;resizable=0;points=[];autosize=1;strokeColor=none;fillColor=none;" vertex="1" parent="1">
          <mxGeometry x="224" y="239" width="150" height="40" as="geometry" />
        </mxCell>
        <mxCell id="LeXcBwFbi9P3hjQakPJu-15" value="&amp;nbsp;Processa a solicitação do&lt;div&gt;&amp;nbsp;passageiro&lt;span style=&quot;background-color: transparent; color: light-dark(rgb(0, 0, 0), rgb(255, 255, 255));&quot;&gt;e conecta&amp;nbsp;&lt;/span&gt;&lt;/div&gt;&lt;div&gt;&lt;span style=&quot;background-color: transparent; color: light-dark(rgb(0, 0, 0), rgb(255, 255, 255));&quot;&gt;os serviços.&lt;/span&gt;&lt;div&gt;EC2&lt;/div&gt;&lt;/div&gt;" style="text;html=1;align=center;verticalAlign=middle;resizable=0;points=[];autosize=1;strokeColor=none;fillColor=none;" vertex="1" parent="1">
          <mxGeometry x="360" y="81" width="160" height="70" as="geometry" />
        </mxCell>
        <mxCell id="LeXcBwFbi9P3hjQakPJu-17" value="&lt;div&gt;RDS&lt;/div&gt;Armazena as informaçoes do&lt;div&gt;&amp;nbsp;passageiro,&amp;nbsp;&lt;span style=&quot;background-color: transparent; color: light-dark(rgb(0, 0, 0), rgb(255, 255, 255));&quot;&gt;voo e assento.&lt;/span&gt;&lt;/div&gt;" style="text;html=1;align=center;verticalAlign=middle;resizable=0;points=[];autosize=1;strokeColor=none;fillColor=none;" vertex="1" parent="1">
          <mxGeometry x="350" y="371" width="180" height="60" as="geometry" />
        </mxCell>
        <mxCell id="LeXcBwFbi9P3hjQakPJu-18" value="&lt;div&gt;S3&lt;/div&gt;Guarda os arquivos gerados&amp;nbsp;&lt;div&gt;(Cartão de embarque).&lt;/div&gt;" style="text;html=1;align=center;verticalAlign=middle;resizable=0;points=[];autosize=1;strokeColor=none;fillColor=none;" vertex="1" parent="1">
          <mxGeometry x="498.25" y="110" width="180" height="60" as="geometry" />
        </mxCell>
        <mxCell id="LeXcBwFbi9P3hjQakPJu-24" value="&lt;div&gt;S3 Glacier&lt;/div&gt;Armazenamento de&lt;div&gt;&amp;nbsp;arquivos&amp;nbsp;&lt;span style=&quot;background-color: transparent; color: light-dark(rgb(0, 0, 0), rgb(255, 255, 255));&quot;&gt;após 90 dias.&lt;/span&gt;&lt;/div&gt;" style="text;html=1;align=center;verticalAlign=middle;resizable=0;points=[];autosize=1;strokeColor=none;fillColor=none;" vertex="1" parent="1">
          <mxGeometry x="513.25" y="400" width="150" height="60" as="geometry" />
        </mxCell>
      </root>
    </mxGraphModel>
  </diagram>
</mxfile>
